HIERARCHY
ROOT Hips
{
    OFFSET 0.000000 0.000000 0.000000
    CHANNELS 6 Xposition Yposition Zposition Zrotation Xrotation Yrotation
    JOINT Spine
    {
        OFFSET -0.000000 7.236184 0.000000
        CHANNELS 3 Zrotation Xrotation Yrotation
        JOINT Spine1
        {
            OFFSET -0.000000 20.420147 0.000000
            CHANNELS 3 Zrotation Xrotation Yrotation
            JOINT Neck
            {
                OFFSET -0.000000 20.336288 1.848754
                CHANNELS 3 Zrotation Xrotation Yrotation
                JOINT Head
                {
                    OFFSET -0.000000 12.354461 -1.764923
                    CHANNELS 3 Zrotation Xrotation Yrotation
                    End Site
                    {
                        OFFSET -0.000000 22.061537 0.000000
                    }
                }
            }
            JOINT LeftShoulder
            {
                OFFSET 3.573296 18.396038 -0.314103
                CHANNELS 3 Zrotation Xrotation Yrotation
                JOINT LeftArm
                {
                    OFFSET 10.880760 0.000000 0.000000
                    CHANNELS 3 Zrotation Xrotation Yrotation
                    JOINT LeftForeArm
                    {
                        OFFSET 27.185530 0.000000 0.000000
                        CHANNELS 3 Zrotation Xrotation Yrotation
                        JOINT LeftHand
                        {
                            OFFSET 27.825975 0.000000 0.000000
                            CHANNELS 3 Zrotation Xrotation Yrotation
                            End Site
                            {
                                OFFSET 13.236923 0.000000 0.000000
                            }
                        }
                    }
                }
            }
            JOINT RightShoulder
            {
                OFFSET -3.474926 18.396038 -0.314103
                CHANNELS 3 Zrotation Xrotation Yrotation
                JOINT RightArm
                {
                    OFFSET -10.880760 0.000000 0.000000
                    CHANNELS 3 Zrotation Xrotation Yrotation
                    JOINT RightForeArm
                    {
                        OFFSET -27.185530 0.000000 0.000000
                        CHANNELS 3 Zrotation Xrotation Yrotation
                        JOINT RightHand
                        {
                            OFFSET -27.825975 0.000000 0.000000
                            CHANNELS 3 Zrotation Xrotation Yrotation
                            End Site
                            {
                                OFFSET -13.236923 0.000000 0.000000
                            }
                        }
                    }
                }
            }
        }
    }
    JOINT LeftUpLeg
    {
        OFFSET 8.824615 0.000000 0.000000
        CHANNELS 3 Zrotation Xrotation Yrotation
        JOINT LeftLeg
        {
            OFFSET -0.000000 -35.111282 0.000000
            CHANNELS 3 Zrotation Xrotation Yrotation
            JOINT LeftFoot
            {
                OFFSET -0.000000 -42.324711 0.000000
                CHANNELS 3 Zrotation Xrotation Yrotation
                JOINT LeftToeBase
                {
                    OFFSET -0.000000 -5.735999 13.236923
                    CHANNELS 3 Zrotation Xrotation Yrotation
                    End Site
                    {
                        OFFSET -0.000000 0.000000 3.529846
                    }
                }
            }
        }
    }
    JOINT RightUpLeg
    {
        OFFSET -8.824615 0.000000 0.000000
        CHANNELS 3 Zrotation Xrotation Yrotation
        JOINT RightLeg
        {
            OFFSET -0.000000 -35.111282 0.000000
            CHANNELS 3 Zrotation Xrotation Yrotation
            JOINT RightFoot
            {
                OFFSET -0.000000 -42.324711 0.000000
                CHANNELS 3 Zrotation Xrotation Yrotation
                JOINT RightToeBase
                {
                    OFFSET -0.000000 -5.735999 13.236923
                    CHANNELS 3 Zrotation Xrotation Yrotation
                    End Site
                    {
                        OFFSET -0.000000 0.000000 3.529846
                    }
                }
            }
        }
    }
}
MOTION
Frames:    7
Frame Time:    0.008333
-1.651905    82.664543    95.265144    0.425745    -11.092820    -172.973206    3.885487    -10.966688    2.631102    -4.231100    1.743352    2.322426    10.406417    12.770627    -11.122905    0.973349    7.072586    -11.842632    3.324829    16.267818    -3.510318    -59.109955    35.240105    -22.978487    -0.795532    -4.415983    -16.073887    16.666491    -4.059266    3.207832    -8.751522    1.854714    -0.018945    50.031487    -17.998205    45.595253    -51.547958    -32.279110    50.804241    -47.484287    -2.975258    -9.990485    1.296579    -14.144692    -2.493194    0.539121    14.932296    -2.499038    0.558935    -11.322803    -8.488981    -1.505007    0.497183    1.666740    -2.794790    -4.912655    -1.179245    11.720355    7.641637    -13.634209    0.000000    0.000000    0.000000    0.000000    0.000000    0.000000    
-1.649480    82.666489    95.260506    0.428427    -11.110544    -172.924530    3.867472    -10.960883    2.635882    -4.226035    1.738788    2.328909    10.353405    12.767917    -11.139408    1.012540    6.783545    -11.852496    3.298358    16.293747    -3.528483    -58.973911    35.354153    -23.159060    -0.820227    -4.440164    -16.009838    16.704647    -4.084486    3.213963    -8.661215    1.891623    -0.004147    50.553097    -18.426302    45.851734    -51.679844    -32.289085    50.575268    -47.370461    -2.990708    -10.148285    1.293496    -14.181947    -2.495255    0.540237    14.958794    -2.517543    0.529238    -11.318997    -8.512670    -1.481693    0.501604    1.640909    -2.801637    -4.906918    -1.213837    11.728011    7.615775    -13.660564    0.000000    0.000000    0.000000    0.000000    0.000000    0.000000    
-1.646831    82.668045    95.253197    0.429881    -11.124741    -172.877777    3.847092    -10.959702    2.638616    -4.220524    1.737051    2.333505    10.296249    12.758064    -11.152265    1.054290    6.511581    -11.858887    3.269666    16.322758    -3.543669    -58.829967    35.478508    -23.351328    -0.848533    -4.460841    -15.938296    16.739992    -4.106634    3.220497    -8.567945    1.935157    0.009914    51.012001    -18.796762    46.074757    -51.834682    -32.302437    50.390739    -47.251507    -2.981438    -10.279892    1.291001    -14.210964    -2.496052    0.540561    14.981000    -2.536522    0.499472    -11.315736    -8.534874    -1.457665    0.506984    1.614285    -2.808666    -4.896564    -1.249305    11.735390    7.591402    -13.686689    0.000000    0.000000    0.000000    0.000000    0.000000    0.000000    
-1.643974    82.669136    95.243073    0.430072    -11.135238    -172.833344    3.824384    -10.963354    2.639298    -4.214542    1.738497    2.336193    10.234150    12.740763    -11.161147    1.099371    6.256122    -11.861365    3.238295    16.354742    -3.555182    -58.677189    35.614258    -23.556234    -0.880598    -4.477870    -15.859294    16.772659    -4.125516    3.227812    -8.471693    1.985964    0.023219    51.399197    -19.105068    46.259598    -52.011509    -32.320168    50.250370    -47.129528    -2.949105    -10.384441    1.289015    -14.231465    -2.495721    0.540272    14.999022    -2.555236    0.469557    -11.313078    -8.555908    -1.432946    0.512996    1.586894    -2.815905    -4.881366    -1.285517    11.742573    7.568565    -13.712083    0.000000    0.000000    0.000000    0.000000    0.000000    0.000000    
-1.640863    82.669731    95.229866    0.429188    -11.141411    -172.791290    3.799439    -10.971670    2.637808    -4.207986    1.743346    2.336907    10.166020    12.715764    -11.165744    1.148591    6.015239    -11.859484    3.203750    16.389572    -3.562872    -58.514042    35.763287    -23.775602    -0.916825    -4.491129    -15.772472    16.802500    -4.141059    3.235899    -8.372170    2.044240    0.036396    51.708157    -19.348711    46.401970    -52.210476    -32.342720    50.152630    -47.006130    -2.894860    -10.461855    1.287992    -14.242817    -2.494653    0.539064    15.013095    -2.573201    0.439290    -11.311134    -8.575783    -1.407410    0.519699    1.558596    -2.823107    -4.860433    -1.322342    11.749712    7.547053    -13.736861    0.000000    0.000000    0.000000    0.000000    0.000000    0.000000    
-1.637609    82.669785    95.213745    0.426905    -11.143541    -172.752548    3.772295    -10.984972    2.634216    -4.201053    1.751522    2.335667    10.092403    12.683072    -11.165851    1.201756    5.792633    -11.853072    3.166524    16.426731    -3.566113    -58.342007    35.924206    -24.007200    -0.956973    -4.500181    -15.679567    16.828968    -4.152779    3.244899    -8.271208    2.109246    0.049377    51.929432    -19.522631    46.497257    -52.426769    -32.369892    50.096363    -46.884510    -2.821713    -10.511464    1.287541    -14.245287    -2.493454    0.536843    15.023325    -2.588942    0.409162    -11.310017    -8.594584    -1.381526    0.527355    1.529911    -2.830543    -4.834610    -1.359586    11.756589    7.527601    -13.760594    0.000000    0.000000    0.000000    0.000000    0.000000    0.000000    
-1.634196    82.669281    95.194710    0.423504    -11.141301    -172.717239    3.743408    -11.002831    2.628614    -4.194093    1.762715    2.332545    10.013831    12.642713    -11.161483    1.258274    5.587940    -11.842198    3.126811    16.465906    -3.565048    -58.161171    36.097366    -24.250912    -1.000975    -4.504935    -15.581267    16.852303    -4.160576    3.254808    -8.169194    2.180609    0.062444    52.061527    -19.627943    46.544910    -52.658062    -32.401249    50.077187    -46.766289    -2.731906    -10.534805    1.287892    -14.238733    -2.492184    0.533824    15.030090    -2.602327    0.379143    -11.309906    -8.612372    -1.355326    0.534996    1.500878    -2.837873    -4.803579    -1.396848    11.763294    7.510115    -13.783289    0.000000    0.000000    0.000000    0.000000    0.000000    0.000000    
